<svg width="50" height="50" viewBox="0 0 50 50" fill="none" xmlns="http://www.w3.org/2000/svg">
<g clip-path="url(#clip0_16279_125)">
<path d="M48.8281 17.4219C50.1562 18.75 50.3906 20.7031 49.4531 21.875L26.3281 48.75C24.9219 50.3906 22.5 50.3906 20.8594 48.8281L1.17187 29.1406C-0.39063 27.5781 -0.390629 25.0781 1.25 23.6719L28.0469 0.624999C29.2187 -0.390626 31.1719 -0.0781263 32.5 1.25L48.8281 17.4219Z" fill="#AFCDDB"/>
<path d="M39.6875 8.35937L9.84375 37.8125L2.89062 30.8594L33.9844 2.65625L39.6875 8.35937Z" fill="#333333"/>
<path d="M38.5938 14.2969L17.6562 35.7812L23.2812 41.4063L43.5156 19.2188L38.5938 14.2969Z" fill="white"/>
<path d="M26.6406 33.8281C25.4687 32.7344 26.1719 30.7031 26.5625 29.6094C27.2656 27.8906 27.9687 31.1719 27.9687 31.7187C28.125 33.3594 27.8906 35.0781 27.5 36.7188C27.2656 37.6563 26.9531 38.5156 26.4844 39.375C26.25 39.9219 25.8594 40.3906 25.3906 40.7031C24.2187 41.4063 23.5156 40.7031 23.2812 38.75C23.4375 38.125 23.6719 37.5781 24.1406 37.1094C25.625 35.2344 27.9687 34.375 29.6875 32.8906C29.8437 32.7344 29.6094 32.5 29.4531 32.6562C27.4219 34.375 23.2031 35.7812 22.9687 39.1406C22.8125 41.3281 25.0781 41.875 26.25 40.625C27.8125 38.9844 28.2031 36.0938 28.3594 33.9063C28.4375 32.6563 28.75 29.0625 26.875 28.6719C26.7969 28.6719 26.7187 28.6719 26.7187 28.75C25.9375 30.0781 24.9219 32.8125 26.4844 34.2187C26.5625 34.2969 26.7969 33.9844 26.6406 33.8281Z" fill="#4F5B60"/>
<path d="M29.2188 32.5781C30.8594 33.5156 31.3281 29.8438 31.0938 28.8281C31.0938 28.6719 30.8594 28.6719 30.7813 28.75C29.9219 29.4531 29.7656 31.3281 30.4688 32.4219C30.5469 32.5781 30.7031 32.5781 30.7813 32.4219C31.3281 31.4063 31.6406 30.3906 32.0313 29.2969C32.1875 28.8281 32.5781 28.9844 32.8906 28.6719L34.7656 26.7969C35.5469 26.0156 35.7813 24.9219 36.4844 24.1406C37.4219 23.125 38.2813 22.6563 38.75 21.25C38.8281 20.9375 38.8281 20.1563 38.2813 20.1563C37.1875 20.0781 36.25 22.3438 37.7344 22.1094C39.4531 21.875 41.0156 19.8438 42.1094 18.75C42.2656 18.5938 42.0313 18.3594 41.875 18.5156C41.3281 19.0625 40.7031 19.6094 40.1563 20.0781C39.6875 20.4688 39.2188 20.8594 38.6719 21.25C38.4375 21.4063 36.4063 22.3438 37.6563 20.8594C37.8906 21.0156 38.125 21.1719 38.3594 21.4063C38.2813 21.5625 38.2031 21.7969 38.125 21.9531C37.9688 22.2656 37.7344 22.5781 37.5 22.8906C37.1094 23.4375 36.4063 23.75 35.9375 24.2969C35.3125 25 35.0781 25.9375 34.4531 26.6406C34.1406 26.9531 32.6563 28.9063 32.1094 28.6719C32.0313 28.6719 31.9531 28.6719 31.9531 28.75C31.7969 29.2969 31.6406 29.7656 31.4063 30.3125C31.3281 30.4688 30.625 31.9531 30.625 32.0313C30.3125 31.25 30.3906 30.3125 30.7031 29.6094C30.9375 30 30.9375 30.4688 30.7813 30.8594C30.625 31.7969 30.1563 32.3438 29.375 32.5C29.1406 32.1094 28.9844 32.4219 29.2188 32.5781Z" fill="#4F5B60"/>
</g>
<defs>
<clipPath id="clip0_16279_125">
<rect width="50" height="50" fill="white"/>
</clipPath>
</defs>
</svg>
