<svg width="65" height="50" viewBox="0 0 65 50" fill="none" xmlns="http://www.w3.org/2000/svg">
<g clip-path="url(#clip0_16279_140)">
<path d="M11.6976 49.7515V46.4422C11.6976 45.1734 10.9253 44.3462 9.60142 44.3462C8.93961 44.3462 8.22252 44.5668 7.72604 45.2839C7.34011 44.6771 6.7886 44.3462 5.96122 44.3462C5.40946 44.3462 4.8582 44.5116 4.41675 45.1183V44.4565H3.25845V49.7515H4.41675V46.8281C4.41675 45.8907 4.91323 45.4493 5.68559 45.4493C6.45745 45.4493 6.84388 45.9457 6.84388 46.8281V49.7515H8.00217V46.8281C8.00217 45.8907 8.55343 45.4493 9.27051 45.4493C10.0429 45.4493 10.4288 45.9457 10.4288 46.8281V49.7515H11.6976ZM28.8512 44.4565H26.976V42.857H25.8177V44.4565H24.7698V45.5043H25.8175V47.9314C25.8175 49.145 26.314 49.8618 27.6379 49.8618C28.1343 49.8618 28.6856 49.6965 29.072 49.4759L28.7409 48.4829C28.41 48.7035 28.024 48.7588 27.7482 48.7588C27.1966 48.7588 26.976 48.4279 26.976 47.8761V45.5043H28.8512V44.4565ZM38.6693 44.346C38.0074 44.346 37.5662 44.6771 37.2904 45.1183V44.4565H36.1321V49.7515H37.2904V46.7731C37.2904 45.8907 37.6763 45.3942 38.3934 45.3942C38.614 45.3942 38.8899 45.4495 39.1105 45.5045L39.4414 44.4015C39.2208 44.3462 38.8899 44.3462 38.6693 44.3462M23.8321 44.898C23.2803 44.5118 22.5082 44.3465 21.6808 44.3465C20.3572 44.3465 19.4748 45.0083 19.4748 46.0563C19.4748 46.939 20.1366 47.4352 21.2949 47.6008L21.8464 47.656C22.4532 47.7661 22.7841 47.9317 22.7841 48.2075C22.7841 48.5935 22.3429 48.8694 21.5705 48.8694C20.7984 48.8694 20.1916 48.5935 19.8054 48.3178L19.2539 49.2003C19.8607 49.6415 20.6881 49.8621 21.5152 49.8621C23.0597 49.8621 23.9424 49.1452 23.9424 48.1523C23.9424 47.2146 23.2253 46.7181 22.122 46.5528L21.5705 46.4975C21.074 46.4422 20.6881 46.3322 20.6881 46.0013C20.6881 45.6151 21.074 45.3945 21.6808 45.3945C22.3429 45.3945 23.0047 45.6701 23.3356 45.8357L23.8321 44.898ZM54.6097 44.3465C53.9477 44.3465 53.5064 44.6774 53.2306 45.1186V44.4568H52.0723V49.7518H53.2306V46.7734C53.2306 45.891 53.6167 45.3945 54.3336 45.3945C54.5544 45.3945 54.8303 45.4498 55.0509 45.5048L55.3818 44.4018C55.1612 44.3465 54.8303 44.3465 54.6097 44.3465ZM39.8275 47.1043C39.8275 48.7038 40.9306 49.8621 42.6406 49.8621C43.4127 49.8621 43.9642 49.6967 44.5157 49.2555L43.9642 48.3178C43.523 48.6487 43.0818 48.8141 42.5853 48.8141C41.6477 48.8141 40.9858 48.1523 40.9858 47.1043C40.9858 46.1116 41.6477 45.4495 42.5853 45.3945C43.0818 45.3945 43.523 45.5598 43.9642 45.891L44.5157 44.9533C43.9642 44.5118 43.4127 44.3465 42.6406 44.3465C40.9306 44.3465 39.8275 45.5048 39.8275 47.1043ZM50.5281 47.1043V44.4568H49.3698V45.1186C48.9836 44.6224 48.4321 44.3465 47.715 44.3465C46.2258 44.3465 45.0675 45.5048 45.0675 47.1043C45.0675 48.7038 46.2258 49.8621 47.715 49.8621C48.4871 49.8621 49.0389 49.5864 49.3698 49.09V49.7518H50.5281V47.1043ZM46.2808 47.1043C46.2808 46.1666 46.8876 45.3945 47.8803 45.3945C48.818 45.3945 49.4801 46.1116 49.4801 47.1043C49.4801 48.042 48.818 48.8141 47.8803 48.8141C46.8876 48.7588 46.2808 48.042 46.2808 47.1043ZM32.4366 44.3465C30.8921 44.3465 29.7889 45.4495 29.7889 47.1043C29.7889 48.7591 30.8919 49.8621 32.4916 49.8621C33.2637 49.8621 34.0361 49.6415 34.6429 49.1452L34.0911 48.3178C33.6499 48.6487 33.0984 48.8694 32.5469 48.8694C31.8298 48.8694 31.1127 48.5384 30.9471 47.6005H34.8635V47.1596C34.9188 45.4495 33.926 44.3465 32.4366 44.3465ZM32.4363 45.3392C33.1532 45.3392 33.6499 45.7807 33.76 46.608H31.0022C31.1125 45.891 31.609 45.3392 32.4363 45.3392ZM61.173 47.1043V42.3608H60.0147V45.1186C59.6286 44.6224 59.077 44.3465 58.36 44.3465C56.8708 44.3465 55.7125 45.5048 55.7125 47.1043C55.7125 48.7038 56.8708 49.8621 58.36 49.8621C59.1323 49.8621 59.6838 49.5864 60.0147 49.09V49.7518H61.173V47.1043ZM56.926 47.1043C56.926 46.1666 57.5326 45.3945 58.5255 45.3945C59.4632 45.3945 60.125 46.1116 60.125 47.1043C60.125 48.042 59.4632 48.8141 58.5255 48.8141C57.5326 48.7588 56.926 48.042 56.926 47.1043ZM18.2057 47.1043V44.4568H17.0474V45.1186C16.6612 44.6224 16.1097 44.3465 15.3926 44.3465C13.9034 44.3465 12.7451 45.5048 12.7451 47.1043C12.7451 48.7038 13.9034 49.8621 15.3926 49.8621C16.165 49.8621 16.7165 49.5864 17.0474 49.09V49.7518H18.2057V47.1043ZM13.9034 47.1043C13.9034 46.1666 14.5102 45.3945 15.5029 45.3945C16.4406 45.3945 17.1027 46.1116 17.1027 47.1043C17.1027 48.042 16.4406 48.8141 15.5029 48.8141C14.5102 48.7588 13.9034 48.042 13.9034 47.1043Z" fill="black"/>
<path d="M23.4459 4.24698H40.8203V35.4658H23.4459V4.24698Z" fill="#FF5F00"/>
<path d="M24.5492 19.8565C24.5492 13.5136 27.5275 7.88744 32.1054 4.24698C28.7411 1.5995 24.4941 0 19.861 0C8.88433 0 0.00418091 8.88015 0.00418091 19.8565C0.00418091 30.8327 8.88433 39.7131 19.8607 39.7131C24.4939 39.7131 28.7409 38.1136 32.1054 35.4658C27.5275 31.8807 24.5492 26.1995 24.5492 19.8565Z" fill="#EB001B"/>
<path d="M64.262 19.8565C64.262 30.8327 55.3818 39.7131 44.4055 39.7131C39.7723 39.7131 35.5253 38.1136 32.1607 35.4658C36.7939 31.8256 39.7173 26.1995 39.7173 19.8565C39.7173 13.5136 36.7386 7.88744 32.1607 4.24698C35.5251 1.5995 39.7723 0 44.4055 0C55.3818 0 64.262 8.93543 64.262 19.8565Z" fill="#F79E1B"/>
</g>
<defs>
<clipPath id="clip0_16279_140">
<rect width="64.33" height="50" fill="white"/>
</clipPath>
</defs>
</svg>
